<svg xmlns="http://www.w3.org/2000/svg" viewBox="0 0 48 48" fill="none">
  <path d="M24 6C18 6 12 10 8 16C4 22 6 30 10 36C14 42 20 44 24 44C28 44 34 42 38 36C42 30 44 22 40 16C36 10 30 6 24 6Z" fill="#22c55e"/>
  <path d="M24 14C20 14 16 17 14 21C12 25 14 31 17 35C20 39 23 40 24 40C25 40 28 39 31 35C34 31 36 25 34 21C32 17 28 14 24 14Z" fill="#16a34a"/>
  <path d="M24 20C22 20 20 22 19 24C18 26 19 29 21 31C23 33 24 34 24 34C24 34 25 33 27 31C29 29 30 26 29 24C28 22 26 20 24 20Z" fill="#ffffff"/>
</svg>
